<svg width="339" height="339" viewBox="0 0 339 339" fill="none" xmlns="http://www.w3.org/2000/svg">
<rect width="339" height="339" fill="url(#paint0_linear)"/>
<path d="M173.708 200.523C187.228 200.523 193.894 191.289 196.471 183.988C195.784 184.846 191.174 185.204 189.17 185.276L191.317 187.209C189.814 191.503 180.58 197.087 171.346 196.228C162.112 195.369 155.67 186.994 154.811 180.122C154.124 174.625 154.238 171.103 154.811 170.029H145.362L143 174.539H149.657C149.657 188.059 160.188 200.523 173.708 200.523Z" fill="white"/>
<circle cx="167.05" cy="206.106" r="3.43587" fill="white"/>
<circle cx="183.8" cy="206.106" r="3.43587" fill="white"/>
<path d="M179.182 166.002C180.625 164.352 183 157.319 181.864 152.323C181.146 149.158 180.047 146.74 178.385 144.664C175.654 142.904 173.059 141.999 173.059 141.999L170.401 139.123C170.401 139.123 172.264 139.504 173.059 140.027C175.28 141.49 177.022 142.962 178.385 144.664C180.975 146.333 183.689 148.77 184.427 151.934C185.882 158.174 184.671 163.506 181.826 168.133C181.88 168.192 181.933 168.25 181.986 168.308C189.909 169.232 193.524 176.72 189.531 182.493C185.075 188.933 172.417 197.574 164.494 190.233C154.829 185.407 158.449 170.516 162.905 164.074C166.953 158.224 175.595 158.622 179.182 166.002Z" fill="url(#paint1_linear)"/>
<path fill-rule="evenodd" clip-rule="evenodd" d="M146.575 139.063C156.225 131.752 171.46 132.802 178.43 144.636C175.806 147.956 171.701 149.69 168.3 150.177C161.082 151.208 152.143 148.122 146.724 140.288C146.331 139.853 146.34 139.448 146.575 139.063Z" fill="url(#paint2_linear)"/>
<defs>
<linearGradient id="paint0_linear" x1="169.5" y1="0" x2="169.5" y2="339" gradientUnits="userSpaceOnUse">
<stop stop-color="#00BFFF"/>
<stop offset="0.443162" stop-color="#03B6F2"/>
<stop offset="1" stop-color="#08ABE1"/>
</linearGradient>
<linearGradient id="paint1_linear" x1="171.589" y1="140.039" x2="186.473" y2="189.389" gradientUnits="userSpaceOnUse">
<stop stop-color="#F01F0B"/>
<stop offset="0.454236" stop-color="#EF1E0A"/>
<stop offset="1" stop-color="#EF1D0B"/>
</linearGradient>
<linearGradient id="paint2_linear" x1="174.394" y1="142.66" x2="140.191" y2="138.469" gradientUnits="userSpaceOnUse">
<stop stop-color="#9ADF14"/>
<stop offset="1" stop-color="#8FCB21"/>
</linearGradient>
</defs>
</svg>
